<svg xmlns="http://www.w3.org/2000/svg" viewBox="0 0 427 146.11"><title>leaps</title><g id="Layer_2" data-name="Layer 2"><g id="Layer_1-2" data-name="Layer 1"><path d="M83.6,134.13l.08,0v-29.7L46.09,82.74V36.45L23,23.22,0,36.43l.08,0,0,0,0,0v73.11l63.27,36.52ZM4.49,107V44.25l16.29,9.37V97l38,22v19.33ZM63.27,0,27.71,20.53,50.57,33.64V79.73l38,21.86v29.94l38-21.94V36.52Z"/><path d="M164.53,25.09h16v57.8h29.62V97.65H164.53Z"/><path d="M264.15,89a24.49,24.49,0,0,1-9.33,7.28,27.9,27.9,0,0,1-11.68,2.56A31.35,31.35,0,0,1,232.33,97a25.93,25.93,0,0,1-8.82-5.28,24.77,24.77,0,0,1-5.89-8.25,26,26,0,0,1-2.15-10.76A26,26,0,0,1,217.62,62a24.77,24.77,0,0,1,5.89-8.25,25.93,25.93,0,0,1,8.82-5.28,31.35,31.35,0,0,1,10.81-1.85,24.57,24.57,0,0,1,9.68,1.85,20.06,20.06,0,0,1,7.38,5.28A24.11,24.11,0,0,1,264.87,62a33.34,33.34,0,0,1,1.64,10.76v4.81H230.84a12.19,12.19,0,0,0,4,7,11.3,11.3,0,0,0,7.58,2.61,11.55,11.55,0,0,0,6.41-1.69,17.29,17.29,0,0,0,4.56-4.36Zm-13-21.93a8.86,8.86,0,0,0-2.56-6.66,9.11,9.11,0,0,0-6.87-2.77,11.2,11.2,0,0,0-7.84,2.92,9.34,9.34,0,0,0-2.15,3,9.9,9.9,0,0,0-.87,3.54Z"/><path d="M305.09,91.4h-.2a14.42,14.42,0,0,1-6.82,5.74,23.42,23.42,0,0,1-9,1.74,23.07,23.07,0,0,1-6.71-1A17,17,0,0,1,276.7,95a14.07,14.07,0,0,1-3.89-4.82,14.65,14.65,0,0,1-1.44-6.66A15.3,15.3,0,0,1,273,76.23a14.18,14.18,0,0,1,4.31-4.92,21.55,21.55,0,0,1,6.2-3,44.76,44.76,0,0,1,7.22-1.59,67.52,67.52,0,0,1,7.48-.61c2.5-.07,4.8-.11,6.92-.11a8,8,0,0,0-2.92-6.51,10.56,10.56,0,0,0-6.92-2.4,15,15,0,0,0-6.91,1.59A18.91,18.91,0,0,0,282.75,63l-8.2-8.4a28.15,28.15,0,0,1,10-6,36,36,0,0,1,11.89-2A31.23,31.23,0,0,1,307.6,48.3a16.2,16.2,0,0,1,7,5,19,19,0,0,1,3.64,8,53,53,0,0,1,1,11V97.65H305.09ZM301.3,75.82c-1.16,0-2.61.05-4.36.16a21.89,21.89,0,0,0-5,.87,11.21,11.21,0,0,0-4.1,2.15,5,5,0,0,0-1.69,4,4.41,4.41,0,0,0,2.36,4.1,9.83,9.83,0,0,0,4.92,1.33,15.4,15.4,0,0,0,4.35-.62,13.18,13.18,0,0,0,3.75-1.74,8.45,8.45,0,0,0,2.61-2.87,8.26,8.26,0,0,0,1-4.1V75.82Z"/><path d="M327.3,47.84h14.15V54.4h.2a17.08,17.08,0,0,1,2.41-2.71,18.07,18.07,0,0,1,3.49-2.52,21.79,21.79,0,0,1,4.35-1.84,17.11,17.11,0,0,1,5-.72A25.61,25.61,0,0,1,367,48.51a22.47,22.47,0,0,1,7.74,5.33,23.88,23.88,0,0,1,5,8.15,29.66,29.66,0,0,1,1.74,10.35,31.38,31.38,0,0,1-1.59,10,27.46,27.46,0,0,1-4.51,8.46,22.06,22.06,0,0,1-7.12,5.89,20.2,20.2,0,0,1-9.53,2.2,26.42,26.42,0,0,1-9-1.48,14.32,14.32,0,0,1-6.82-5.08h-.2V121H327.3Zm14.15,24.91a12.84,12.84,0,0,0,3.23,9.12q3.22,3.48,9.07,3.48t9.07-3.48a12.89,12.89,0,0,0,3.23-9.12,12.89,12.89,0,0,0-3.23-9.12q-3.22-3.5-9.07-3.49t-9.07,3.49A12.84,12.84,0,0,0,341.45,72.75Z"/><path d="M415.62,62.5a10.87,10.87,0,0,0-8.91-4.2,8.35,8.35,0,0,0-3.8.92,3.25,3.25,0,0,0-1.84,3.18,2.84,2.84,0,0,0,1.9,2.71,24.82,24.82,0,0,0,4.81,1.54L414,68.08a24,24,0,0,1,6.26,2.41A14.06,14.06,0,0,1,425.1,75a13.25,13.25,0,0,1,1.9,7.53,14,14,0,0,1-2.1,8,16.16,16.16,0,0,1-5.38,5,23.24,23.24,0,0,1-7.38,2.66,43.27,43.27,0,0,1-8.1.77,39.27,39.27,0,0,1-10.56-1.48,19.69,19.69,0,0,1-9-5.28l9.32-10.35a15.77,15.77,0,0,0,4.77,4,12.86,12.86,0,0,0,6.1,1.38,14.27,14.27,0,0,0,4.81-.77,2.83,2.83,0,0,0,2.16-2.82,3.13,3.13,0,0,0-1.9-2.92,21.08,21.08,0,0,0-4.82-1.64l-6.25-1.43a26.41,26.41,0,0,1-6.25-2.31A13.16,13.16,0,0,1,387.59,71a13.31,13.31,0,0,1-1.89-7.53,15.13,15.13,0,0,1,1.79-7.58,15.79,15.79,0,0,1,4.71-5.23,20.38,20.38,0,0,1,6.72-3,30.69,30.69,0,0,1,7.68-1,36,36,0,0,1,9.95,1.44,18.38,18.38,0,0,1,8.5,5.12Z"/></g></g></svg>